<svg width="1280" height="640" viewBox="0 0 1280 640" fill="none" xmlns="http://www.w3.org/2000/svg">
  <defs>
    <linearGradient id="bg" x1="182" y1="74" x2="1116" y2="580" gradientUnits="userSpaceOnUse">
      <stop stop-color="#F7F0E8"/>
      <stop offset="0.55" stop-color="#F3ECE2"/>
      <stop offset="1" stop-color="#E9F4F0"/>
    </linearGradient>
    <linearGradient id="teal" x1="862" y1="145" x2="1037" y2="476" gradientUnits="userSpaceOnUse">
      <stop stop-color="#0F766E"/>
      <stop offset="1" stop-color="#4FB3A9"/>
    </linearGradient>
    <linearGradient id="coral" x1="805" y1="228" x2="1098" y2="466" gradientUnits="userSpaceOnUse">
      <stop stop-color="#F19774"/>
      <stop offset="1" stop-color="#D96D54"/>
    </linearGradient>
    <filter id="shadow" x="0" y="0" width="1280" height="640" filterUnits="userSpaceOnUse" color-interpolation-filters="sRGB">
      <feDropShadow dx="0" dy="24" stdDeviation="36" flood-color="#233542" flood-opacity="0.1"/>
    </filter>
  </defs>

  <g filter="url(#shadow)">
    <rect x="32" y="24" width="1216" height="592" rx="36" fill="url(#bg)"/>
  </g>

  <circle cx="1042" cy="126" r="96" fill="#D7EEE8" fill-opacity="0.72"/>
  <circle cx="1160" cy="218" r="44" fill="#FBE2D6"/>
  <circle cx="188" cy="544" r="94" fill="#F6E5D7" fill-opacity="0.7"/>

  <path d="M804 184C892 118 994 117 1086 186" stroke="url(#teal)" stroke-width="12" stroke-linecap="round"/>
  <path d="M804 451C892 385 994 384 1086 453" stroke="url(#coral)" stroke-width="12" stroke-linecap="round"/>
  <path d="M1086 184C998 250 896 251 804 184" stroke="url(#coral)" stroke-width="12" stroke-linecap="round"/>
  <path d="M1086 453C998 519 896 520 804 453" stroke="url(#teal)" stroke-width="12" stroke-linecap="round"/>

  <g opacity="0.9">
    <rect x="839" y="203" width="16" height="229" rx="8" fill="#EFD9C6"/>
    <rect x="887" y="184" width="16" height="270" rx="8" fill="#D7EEE8"/>
    <rect x="935" y="172" width="16" height="292" rx="8" fill="#EFD9C6"/>
    <rect x="983" y="184" width="16" height="270" rx="8" fill="#D7EEE8"/>
    <rect x="1031" y="203" width="16" height="229" rx="8" fill="#EFD9C6"/>
  </g>

  <rect x="94" y="96" width="420" height="40" rx="20" fill="#DDF0EA"/>
  <text x="114" y="122" fill="#0F766E" font-size="20" font-family="Georgia, 'Times New Roman', serif" letter-spacing="0.16em">
    OPEN BIOMEDICAL ILLUSTRATION STUDIO
  </text>

  <text x="94" y="240" fill="#10212C" font-size="96" font-weight="700" font-family="Georgia, 'Times New Roman', serif">
    HelixCanvas
  </text>

  <text x="96" y="302" fill="#4D5E69" font-size="31" font-family="'Trebuchet MS', 'Segoe UI', sans-serif">
    Create tasteful, publication-ready research figures
  </text>
  <text x="96" y="342" fill="#4D5E69" font-size="31" font-family="'Trebuchet MS', 'Segoe UI', sans-serif">
    from open libraries and source-aware imports.
  </text>

  <rect x="96" y="404" width="198" height="60" rx="30" fill="#0F766E"/>
  <text x="146" y="442" fill="white" font-size="24" font-weight="700" font-family="'Trebuchet MS', 'Segoe UI', sans-serif">
    Bioicons
  </text>

  <rect x="310" y="404" width="254" height="60" rx="30" fill="#F2DED2"/>
  <text x="352" y="442" fill="#8E533F" font-size="24" font-weight="700" font-family="'Trebuchet MS', 'Segoe UI', sans-serif">
    Servier Art
  </text>

  <rect x="96" y="486" width="472" height="56" rx="28" fill="#FFFFFF" fill-opacity="0.68" stroke="#E7D9CE"/>
  <text x="126" y="522" fill="#334651" font-size="22" font-family="'Trebuchet MS', 'Segoe UI', sans-serif">
    Drag. Layer. Annotate. Export. Cite.
  </text>
</svg>
